<?xml version="1.0" encoding="utf-8"?>
<!-- Generator: Adobe Illustrator 15.0.2, SVG Export Plug-In . SVG Version: 6.00 Build 0)  -->
<!DOCTYPE svg PUBLIC "-//W3C//DTD SVG 1.0//EN" "http://www.w3.org/TR/2001/REC-SVG-20010904/DTD/svg10.dtd">
<svg version="1.0" id="Layer_1" xmlns="http://www.w3.org/2000/svg" xmlns:xlink="http://www.w3.org/1999/xlink" x="0px" y="0px"
	 width="200px" height="200px" viewBox="0 0 435 435" enable-background="new 0 0 200 200" xml:space="preserve">
<g>
	<path fill="#FCCA03" d="M252,324c0-59.647,48.354-108,108-108c26.908,0,51.515,9.843,70.424,26.121
		C431.456,233.557,432,224.842,432,216C432,96.874,335.563,0.278,216.501,0.006C257.392,0.143,290.5,33.327,290.5,74.25
		c0,41.007-33.243,74.25-74.25,74.25c-41.008,0-74.25-33.243-74.25-74.25c0-40.979,33.197-74.203,74.167-74.248
		C216.111,0.002,216.055,0,216,0C96.706,0,0,96.707,0,216c0,8.843,0.544,17.557,1.577,26.121C20.485,225.843,45.092,216,72,216
		c59.646,0,108,48.353,108,108c0,37.934-19.561,71.294-49.143,90.56C156.984,425.777,185.764,432,216,432s59.016-6.223,85.143-17.44
		C271.561,395.294,252,361.934,252,324z"/>
	<path fill="#DD1812" d="M216.25,0c-0.028,0-0.056,0.002-0.083,0.002c0.112,0,0.223,0.004,0.334,0.004
		C216.417,0.006,216.334,0,216.25,0z"/>
	<path fill="#DD1812" d="M142,74.25c0,41.007,33.242,74.25,74.25,74.25c41.007,0,74.25-33.243,74.25-74.25
		c0-40.923-33.108-74.107-73.999-74.244c-0.112,0-0.223-0.004-0.334-0.004C175.197,0.047,142,33.271,142,74.25z"/>
	<path fill="#0140CA" d="M180,324c0-59.647-48.354-108-108-108c-26.908,0-51.515,9.843-70.424,26.121
		c9.366,77.69,59.967,142.678,129.281,172.438C160.439,395.294,180,361.934,180,324z"/>
	<path fill="#16A61E" d="M430.424,242.121C411.515,225.843,386.908,216,360,216c-59.646,0-108,48.353-108,108
		c0,37.934,19.561,71.294,49.142,90.56C370.457,384.798,421.058,319.811,430.424,242.121z"/>
</g>
</svg>
